	<svg width="auto" height="auto" viewBox="-10933 -4195 1751 2023" version="1.1" xmlns="http://www.w3.org/2000/svg" xmlns:xlink="http://www.w3.org/1999/xlink">
	    <desc>Created with Sketch.</desc>
	    <defs>
        </defs>
	    <g id="hexagon" stroke="none" stroke-width="1" fill="#ffffff" fill-rule="evenodd" transform="translate(-10057.500000, -3183.500000) rotate(90.000000) translate(10057.500000, 3183.500000) translate(-11069.000000, -4059.000000)">
	        <path d="M505.623061,1750.85461 L1516.8892,1750.85461 L2022.48223,875.427306 L1516.8892,0 L505.623061,0 L0,875.427306 L505.623061,1750.85461 Z M580.866819,126.212762 L1445.68095,126.212762 L1878.03636,874.853145 L1445.68095,1623.49353 L580.866819,1623.49353 L148.470084,874.853145 L580.866819,126.212762 Z" id="Shape" fill="#ffffff"></path>
	    </g>
	</svg>



<svg width="1800px" height="2078px" viewBox="-11016 -4234 1800 2078" version="1.1" xmlns="http://www.w3.org/2000/svg" xmlns:xlink="http://www.w3.org/1999/xlink">
    <desc>Created with Sketch.</desc>
    <defs></defs>
    <g id="hexagon" stroke="none" stroke-width="1" fill="none" fill-rule="evenodd" transform="translate(-10116.500000, -3195.000000) rotate(90.000000) translate(10116.500000, 3195.000000) translate(-11155.500000, -4094.500000)">
        <path d="M519.464337,1798.19929 L1558.41358,1798.19929 L2077.84706,899.099645 L1558.41358,-1.13686838e-13 L519.464337,-1.13686838e-13 L0,899.099645 L519.464337,1798.19929 Z M573.519656,94.2287371 L1503.5701,94.2287371 L1968.53977,899.080409 L1503.5701,1703.93208 L573.519656,1703.93208 L108.505544,899.080409 L573.519656,94.2287371 Z" id="Combined-Shape" fill="#FFFFFF"></path>
    </g>
</svg>